# xmcd
#
# Track frame offsets:
#	150
#	20134
#	35721
#	50920
#	67790
#	82863
#	100089
#	116901
#	132403
#	146176
#	165287
#
# Disc length: 2391 seconds
# Revision: 0
# Processed by: cddbd v1.5.2PL0 Copyright (c) Steve Scherf et al.
# Submitted via: dBpowerAMP V12.0
#
DISCID=9909550b
DTITLE=Steve Moakler - Steel Town
DYEAR=2017
DGENRE=Country
TTITLE0=Steel Town
TTITLE1=Suitcase
TTITLE2=Jealous Girl
TTITLE3=Summer Without Her
TTITLE4=Love Drunk
TTITLE5=Hearts Don't Break That Way
TTITLE6=Wheels
TTITLE7=Siddle's Saloon
TTITLE8=School
TTITLE9=Just Long Enough
TTITLE10=Gold
EXTD=
EXTT0=
EXTT1=
EXTT2=
EXTT3=
EXTT4=
EXTT5=
EXTT6=
EXTT7=
EXTT8=
EXTT9=
EXTT10=
PLAYORDER=
